<svg id="visual" viewBox="0 0 960 540" width="960" height="540" xmlns="http://www.w3.org/2000/svg" xmlns:xlink="http://www.w3.org/1999/xlink" version="1.1"><rect x="0" y="0" width="960" height="540" fill="#d9d2c9"></rect><path d="M0 339L22.8 340.8C45.7 342.7 91.3 346.3 137 352.8C182.7 359.3 228.3 368.7 274 370.2C319.7 371.7 365.3 365.3 411.2 362.3C457 359.3 503 359.7 548.8 356.5C594.7 353.3 640.3 346.7 686 340.3C731.7 334 777.3 328 823 333C868.7 338 914.3 354 937.2 362L960 370L960 541L937.2 541C914.3 541 868.7 541 823 541C777.3 541 731.7 541 686 541C640.3 541 594.7 541 548.8 541C503 541 457 541 411.2 541C365.3 541 319.7 541 274 541C228.3 541 182.7 541 137 541C91.3 541 45.7 541 22.8 541L0 541Z" fill="#fa7268"></path><path d="M0 410L22.8 412.7C45.7 415.3 91.3 420.7 137 411.5C182.7 402.3 228.3 378.7 274 376C319.7 373.3 365.3 391.7 411.2 401C457 410.3 503 410.7 548.8 410.3C594.7 410 640.3 409 686 411.8C731.7 414.7 777.3 421.3 823 418.7C868.7 416 914.3 404 937.2 398L960 392L960 541L937.2 541C914.3 541 868.7 541 823 541C777.3 541 731.7 541 686 541C640.3 541 594.7 541 548.8 541C503 541 457 541 411.2 541C365.3 541 319.7 541 274 541C228.3 541 182.7 541 137 541C91.3 541 45.7 541 22.8 541L0 541Z" fill="#ef5f67"></path><path d="M0 405L22.8 408.8C45.7 412.7 91.3 420.3 137 429.3C182.7 438.3 228.3 448.7 274 448.3C319.7 448 365.3 437 411.2 434C457 431 503 436 548.8 433.5C594.7 431 640.3 421 686 421.8C731.7 422.7 777.3 434.3 823 432.7C868.7 431 914.3 416 937.2 408.5L960 401L960 541L937.2 541C914.3 541 868.7 541 823 541C777.3 541 731.7 541 686 541C640.3 541 594.7 541 548.8 541C503 541 457 541 411.2 541C365.3 541 319.7 541 274 541C228.3 541 182.7 541 137 541C91.3 541 45.7 541 22.8 541L0 541Z" fill="#e34c67"></path><path d="M0 435L22.8 435.3C45.7 435.7 91.3 436.3 137 443.3C182.7 450.3 228.3 463.7 274 471.5C319.7 479.3 365.3 481.7 411.2 480.5C457 479.3 503 474.7 548.8 469.2C594.7 463.7 640.3 457.3 686 452.3C731.7 447.3 777.3 443.7 823 448.3C868.7 453 914.3 466 937.2 472.5L960 479L960 541L937.2 541C914.3 541 868.7 541 823 541C777.3 541 731.7 541 686 541C640.3 541 594.7 541 548.8 541C503 541 457 541 411.2 541C365.3 541 319.7 541 274 541C228.3 541 182.7 541 137 541C91.3 541 45.7 541 22.8 541L0 541Z" fill="#d53867"></path><path d="M0 479L22.8 480.5C45.7 482 91.3 485 137 488C182.7 491 228.3 494 274 498.3C319.7 502.7 365.3 508.3 411.2 510.3C457 512.3 503 510.7 548.8 504.7C594.7 498.7 640.3 488.3 686 486.7C731.7 485 777.3 492 823 492.8C868.7 493.7 914.3 488.3 937.2 485.7L960 483L960 541L937.2 541C914.3 541 868.7 541 823 541C777.3 541 731.7 541 686 541C640.3 541 594.7 541 548.8 541C503 541 457 541 411.2 541C365.3 541 319.7 541 274 541C228.3 541 182.7 541 137 541C91.3 541 45.7 541 22.8 541L0 541Z" fill="#c62368"></path></svg>